<svg xmlns="http://www.w3.org/2000/svg" width="256" height="256" viewBox="0 0 100 100"><rect width="100" height="100" rx="50" fill="#ff5500"></rect><path d="M28.06 76.25L14.56 76.25L14.56 75.50L19.06 74.38L19.06 25.63L14.56 24.50L14.56 23.75L28.06 23.75Q31.59 23.75 34.17 24.54Q36.76 25.33 38.49 26.71Q40.21 28.10 41.08 29.94Q41.94 31.77 41.94 33.88L41.94 33.88Q41.94 35.52 41.45 36.80Q40.96 38.08 40.17 39.01Q39.39 39.95 38.38 40.66Q37.36 41.38 36.31 41.83L36.31 41.83Q33.84 42.95 30.69 43.25L30.69 43.25Q35.34 43.70 38.94 45.58L38.94 45.58Q40.51 46.40 41.97 47.56Q43.44 48.73 44.60 50.41Q45.76 52.10 46.48 54.31Q47.19 56.53 47.19 59.38L47.19 59.38Q47.19 62.90 45.84 65.97Q44.49 69.05 41.97 71.34Q39.46 73.63 35.94 74.94Q32.41 76.25 28.06 76.25L28.06 76.25ZM28.06 44L25.44 44L25.44 74.75L28.06 74.75Q30.61 74.75 32.79 73.78Q34.96 72.80 36.58 70.85Q38.19 68.90 39.13 66.05Q40.06 63.20 40.06 59.38L40.06 59.38Q40.06 55.55 39.13 52.70Q38.19 49.85 36.58 47.90Q34.96 45.95 32.79 44.98Q30.61 44 28.06 44L28.06 44ZM25.44 25.25L25.44 42.50L28.06 42.50Q31.44 42.43 33.50 40.29Q35.56 38.15 35.56 33.88L35.56 33.88Q35.56 29.60 33.50 27.43Q31.44 25.25 28.06 25.25L28.06 25.25L25.44 25.25ZM65.94 57.50L63.31 57.50L63.31 74.38L67.81 75.50L67.81 76.25L52.44 76.25L52.44 75.50L56.94 74.38L56.94 25.63L52.44 24.50L52.44 23.75L65.94 23.75Q70.59 23.75 74.22 25.02Q77.86 26.30 80.34 28.55Q82.81 30.80 84.13 33.88Q85.44 36.95 85.44 40.63L85.44 40.63Q85.44 44.30 84.13 47.38Q82.81 50.45 80.34 52.70Q77.86 54.95 74.22 56.23Q70.59 57.50 65.94 57.50L65.94 57.50ZM63.31 25.25L63.31 56L65.94 56Q71.86 56 75.09 52.40Q78.31 48.80 78.31 40.63L78.31 40.63Q78.31 32.45 75.09 28.85Q71.86 25.25 65.94 25.25L65.94 25.25L63.31 25.25Z" fill="#ffffff"></path></svg>